<?xml version="1.0" standalone="no"?><!DOCTYPE svg PUBLIC "-//W3C//DTD SVG 1.1//EN" "http://www.w3.org/Graphics/SVG/1.1/DTD/svg11.dtd"><svg t="1695518585163" class="icon" viewBox="0 0 1024 1024" version="1.1" xmlns="http://www.w3.org/2000/svg" p-id="808" xmlns:xlink="http://www.w3.org/1999/xlink" width="200" height="200"><path d="M816.64 551.936c1.536-12.8 2.56-26.112 2.56-39.936 0-13.824-1.024-27.136-3.072-39.936l86.528-67.584a21.162667 21.162667 0 0 0 5.12-26.112l-81.92-141.824a20.821333 20.821333 0 0 0-25.088-9.216l-101.888 40.96a299.946667 299.946667 0 0 0-69.12-39.936l-15.36-108.544a20.437333 20.437333 0 0 0-20.48-17.408h-163.84a19.925333 19.925333 0 0 0-19.968 17.408l-15.36 108.544a308.010667 308.010667 0 0 0-69.12 39.936l-101.888-40.96a20.266667 20.266667 0 0 0-25.088 9.216l-81.92 141.824a19.84 19.84 0 0 0 5.12 26.112l86.528 67.584c-2.048 12.8-3.584 26.624-3.584 39.936 0 13.312 1.024 27.136 3.072 39.936L121.344 619.52a21.162667 21.162667 0 0 0-5.12 26.112l81.92 141.824c5.12 9.216 15.872 12.288 25.088 9.216l101.888-40.96a299.946667 299.946667 0 0 0 69.12 39.936l15.36 108.544c2.048 10.24 10.24 17.408 20.48 17.408h163.84c10.24 0 18.944-7.168 19.968-17.408l15.36-108.544a308.010667 308.010667 0 0 0 69.12-39.936l101.888 40.96c9.216 3.584 19.968 0 25.088-9.216l81.92-141.824a19.84 19.84 0 0 0-5.12-26.112l-85.504-67.584zM512 665.6A154.026667 154.026667 0 0 1 358.4 512c0-84.48 69.12-153.6 153.6-153.6s153.6 69.12 153.6 153.6-69.12 153.6-153.6 153.6z" fill="#959BA7" p-id="809"></path></svg>